{"title":"Burning.Bright.2010.720p.BRRip.XviD.AC3-PsychoLogic","uid":6617173,"size":2340646630,"categoryP":"video","categoryS":"hd___movies","magnet":"?xt=urn:btih:fa60973c2d1772fdd474ab9c9640c9fa3770c3a8&amp;dn=Burning.Bright.2010.720p.BRRip.XviD.AC3-PsychoLogic&amp;tr=udp%3A%2F%2Ftracker.openbittorrent.com%3A80&amp;tr=udp%3A%2F%2Fopen.demonii.com%3A1337&amp;tr=udp%3A%2F%2Ftracker.coppersurfer.tk%3A6969&amp;tr=udp%3A%2F%2Fexodus.desync.com%3A6969","seeders":0,"leechers":1,"uploader":"PsychoLogic","files":10,"time":1313838154,"description":"Release Information:\n\nBurning.Bright.2010.720p.BRRip.XviD.AC3-PsychoLogic\n\nSource                           : aaf-burning.bright.2010.720p.bluray.x264\nSubtitles                        : Arabic, English, Hungarian, Indonesian, Portuguese, Romanian\nLanguage                         : English\nEncoded By                       : PsychoLogic\nSample Included                  : Yes\n\nMovie Information                : http://www.imdb.com/title/tt1244658/\nGenre                            : Drama | Horror | Thriller\nDirector                         : Carlos Brooks\nCast                             : Briana Evigan, Charlie Tahan and Garret Dillahunt\nPlot                             : A thriller centered on a young woman and her autistic little brother who are trapped in a house with a ravenous tiger during a hurricane. \n\nGeneral\nFormat                           : AVI\nFormat/Info                      : Audio Video Interleave\nFormat profile                   : OpenDML\nFile size                        : 2.16 GiB\nDuration                         : 1h 29mn\nOverall bit rate                 : 3 458 Kbps\nWriting application              : VirtualDubMod 1.5.10.2 (build 2540/release)\nWriting library                  : VirtualDubMod build 2540/release\n\nVideo\nID                               : 0\nFormat                           : MPEG-4 Visual\nFormat profile                   : Advanced Simple@L5\nFormat settings, BVOP            : 2\nFormat settings, QPel            : No\nFormat settings, GMC             : No warppoints\nFormat settings, Matrix          : Default (H.263)\nCodec ID                         : XVID\nCodec ID/Hint                    : XviD\nDuration                         : 1h 29mn\nBit rate                         : 2 999 Kbps\nWidth                            : 1 280 pixels\nHeight                           : 720 pixels\nDisplay aspect ratio             : 16:9\nFrame rate                       : 23.976 fps\nColor space                      : YUV\nChroma subsampling               : 4:2:0\nBit depth                        : 8 bits\nScan type                        : Progressive\nCompression mode                 : Lossy\nBits/(Pixel*Frame)               : 0.136\nStream size                      : 1.87 GiB (87%)\nWriting library                  : XviD 1.2.1 (UTC 2008-12-04)\n\nAudio\nID                               : 1\nFormat                           : AC-3\nFormat/Info                      : Audio Coding 3\nMode extension                   : CM (complete main)\nCodec ID                         : 2000\nDuration                         : 1h 29mn\nBit rate mode                    : Constant\nBit rate                         : 448 Kbps\nChannel(s)                       : 6 channels\nChannel positions                : Front: L C R, Side: L R, LFE\nSampling rate                    : 48.0 KHz\nBit depth                        : 16 bits\nCompression mode                 : Lossy\nStream size                      : 287 MiB (13%)\nAlignment                        : Split accross interleaves\nInterleave, duration             : 42 ms (1.00 video frame)\nInterleave, preload duration     : 500 ms\n\n","torrent":{"xt":"urn:btih:fa60973c2d1772fdd474ab9c9640c9fa3770c3a8","amp;dn":"Burning.Bright.2010.720p.BRRip.XviD.AC3-PsychoLogic","amp;tr":["udp%3A%2F%2Ftracker.openbittorrent.com%3A80","udp%3A%2F%2Fopen.demonii.com%3A1337","udp%3A%2F%2Ftracker.coppersurfer.tk%3A6969","udp%3A%2F%2Fexodus.desync.com%3A6969"],"infoHash":"fa60973c2d1772fdd474ab9c9640c9fa3770c3a8","infoHashBuffer":{"type":"Buffer","data":[250,96,151,60,45,23,114,253,212,116,171,156,150,64,201,250,55,112,195,168]},"announce":[],"urlList":[]}}